<?xml version="1.0" encoding="UTF-8" standalone="no"?>
<svg
   width="506"
   height="242"
   viewBox="0 0 417.25523 199.55685"
   fill="none"
   version="1.1"
   id="svg21"
   sodipodi:docname="basis2.svg"
   inkscape:version="1.3 (0e150ed6c4, 2023-07-21)"
   xmlns:inkscape="http://www.inkscape.org/namespaces/inkscape"
   xmlns:sodipodi="http://sodipodi.sourceforge.net/DTD/sodipodi-0.dtd"
   xmlns="http://www.w3.org/2000/svg"
   xmlns:svg="http://www.w3.org/2000/svg">
  <sodipodi:namedview
     id="namedview21"
     pagecolor="#ffffff"
     bordercolor="#cccccc"
     borderopacity="1"
     inkscape:showpageshadow="0"
     inkscape:pageopacity="1"
     inkscape:pagecheckerboard="0"
     inkscape:deskcolor="#d1d1d1"
     inkscape:zoom="1.5952381"
     inkscape:cx="182.73134"
     inkscape:cy="144.49254"
     inkscape:window-width="2560"
     inkscape:window-height="1377"
     inkscape:window-x="2152"
     inkscape:window-y="-8"
     inkscape:window-maximized="1"
     inkscape:current-layer="svg21" />
  <g
     filter="url(#filter0_f_316_3902)"
     id="g7"
     transform="translate(-44.553053,-68.489145)">
    <mask
       id="mask0_316_3902"
       maskUnits="userSpaceOnUse"
       x="88"
       y="87"
       width="336"
       height="182">
      <rect
         x="88"
         y="87.813004"
         width="336"
         height="181.071"
         rx="23.644899"
         fill="#ffffff"
         id="rect1" />
    </mask>
    <g
       mask="url(#mask0_316_3902)"
       id="g6">
      <rect
         x="88"
         y="87.813004"
         width="336"
         height="181.071"
         rx="23.644899"
         fill="#ffffff"
         id="rect2" />
      <g
         filter="url(#filter1_f_316_3902)"
         id="g2">
        <ellipse
           cx="333.35599"
           cy="269.33301"
           rx="119.119"
           ry="122.834"
           fill="#34ece1"
           id="ellipse2" />
      </g>
      <g
         filter="url(#filter2_f_316_3902)"
         id="g3">
        <ellipse
           cx="158.237"
           cy="293.745"
           rx="104.407"
           ry="122.706"
           fill="#b6ff7c"
           id="ellipse3" />
      </g>
      <g
         filter="url(#filter3_f_316_3902)"
         id="g4">
        <path
           d="M 494.629,135.163 C 483.648,191.116 432.444,182.315 378.183,168.858 232.063,331.485 124.789,131.865 135.769,75.9115 146.749,19.9581 266.161,-128.43 320.422,-114.973 c 54.261,13.456 185.187,194.1824 174.207,250.136 z"
           fill="#236af2"
           id="path3" />
      </g>
      <g
         filter="url(#filter4_f_316_3902)"
         id="g5">
        <ellipse
           cx="189.08501"
           cy="47.868599"
           rx="159.93201"
           ry="164.92101"
           fill="#54dee7"
           id="ellipse4" />
      </g>
    </g>
  </g>
  <mask
     id="mask1_316_3902"
     maskUnits="userSpaceOnUse"
     x="44"
     y="68"
     width="419"
     height="201">
    <rect
       x="44"
       y="68"
       width="418.51401"
       height="200.62601"
       fill="#ffffff"
       id="rect7" />
  </mask>
  <g
     mask="url(#mask1_316_3902)"
     id="g12"
     transform="translate(-44.553053,-68.489145)">
    <rect
       x="44"
       y="68"
       width="418.51401"
       height="200.62601"
       fill="#4fffc0"
       id="rect8" />
    <g
       filter="url(#filter5_f_316_3902)"
       id="g8">
      <ellipse
         cx="349.60999"
         cy="269.12399"
         rx="148.37199"
         ry="136.10001"
         fill="#34ece1"
         id="ellipse8" />
    </g>
    <g
       filter="url(#filter6_f_316_3902)"
       id="g9">
      <ellipse
         cx="131.48599"
         cy="296.173"
         rx="130.047"
         ry="135.95799"
         fill="#b6ff7c"
         id="ellipse9" />
    </g>
    <g
       filter="url(#filter7_f_316_3902)"
       id="g10">
      <path
         d="M 550.488,120.463 C 536.811,182.46 473.032,172.707 405.446,157.798 223.441,337.989 89.8234,116.809 103.5,54.813 c 13.677,-61.99631 162.414,-226.41 230,-211.5 67.586,14.91 230.664,215.1541 216.988,277.15 z"
         fill="#236af2"
         id="path9" />
    </g>
    <g
       filter="url(#filter8_f_316_3902)"
       id="g11">
      <ellipse
         cx="169.909"
         cy="23.7416"
         rx="199.20799"
         ry="182.73199"
         fill="#54dee7"
         id="ellipse10" />
    </g>
  </g>
  <path
     d="m 89.446947,174.51085 c -17.375,-4.375 -31.719,-14.344 -43.0312,-29.906 -11.3125,-15.563 -16.9688,-32.844 -16.9688,-51.843995 v -45.75 l 60,-22.5 60.000003,22.5 v 45.75 c 0,1.25 -0.031,2.5 -0.094,3.75 -0.062,1.25 -0.156,2.499995 -0.281,3.749995 -1.125,-0.25 -2.281,-0.437 -3.469,-0.562 -1.187,-0.126 -2.406,-0.188 -3.656,-0.188 -10.375,0 -19.219,3.625 -26.531,10.875 -7.313,7.25 -10.969,16.125 -10.969,26.625 v 31.875 c -2.375,1.25 -4.813,2.344 -7.312003,3.281 -2.5,0.938 -5.063,1.719 -7.688,2.344 z m 36.375003,0 c -1.75,0 -3.25,-0.625 -4.5,-1.875 -1.25,-1.25 -1.875,-2.75 -1.875,-4.5 v -24.75 c 0,-1.75 0.625,-3.25 1.875,-4.5 1.25,-1.25 2.75,-1.875 4.5,-1.875 h 1.125 v -7.5 c 0,-4.125 1.469,-7.656 4.406,-10.594 2.938,-2.937 6.469,-4.406 10.594,-4.406 4.125,0 7.656,1.469 10.594,4.406 2.937,2.938 4.406,6.469 4.406,10.594 v 7.5 h 1.125 c 1.75,0 3.25,0.625 4.5,1.875 1.25,1.25 1.875,2.75 1.875,4.5 v 24.75 c 0,1.75 -0.625,3.25 -1.875,4.5 -1.25,1.25 -2.75,1.875 -4.5,1.875 z m 8.625,-37.5 h 15 v -7.5 c 0,-2.125 -0.719,-3.906 -2.156,-5.344 -1.438,-1.437 -3.219,-2.156 -5.344,-2.156 -2.125,0 -3.906,0.719 -5.344,2.156 -1.437,1.438 -2.156,3.219 -2.156,5.344 z"
     fill="#ffffff"
     fill-opacity="0.3"
     id="path12" />
  <defs
     id="defs21">
    <filter
       id="filter0_f_316_3902"
       x="0.51399201"
       y="0.32698101"
       width="510.97198"
       height="356.043"
       filterUnits="userSpaceOnUse"
       color-interpolation-filters="sRGB">
      <feFlood
         flood-opacity="0"
         result="BackgroundImageFix"
         id="feFlood13" />
      <feBlend
         mode="normal"
         in="SourceGraphic"
         in2="BackgroundImageFix"
         result="shape"
         id="feBlend13" />
      <feGaussianBlur
         stdDeviation="43.743"
         result="effect1_foregroundBlur_316_3902"
         id="feGaussianBlur13" />
    </filter>
    <filter
       id="filter1_f_316_3902"
       x="92.466202"
       y="24.727301"
       width="481.77899"
       height="489.211"
       filterUnits="userSpaceOnUse"
       color-interpolation-filters="sRGB">
      <feFlood
         flood-opacity="0"
         result="BackgroundImageFix"
         id="feFlood14" />
      <feBlend
         mode="normal"
         in="SourceGraphic"
         in2="BackgroundImageFix"
         result="shape"
         id="feBlend14" />
      <feGaussianBlur
         stdDeviation="60.8855"
         result="effect1_foregroundBlur_316_3902"
         id="feGaussianBlur14" />
    </filter>
    <filter
       id="filter2_f_316_3902"
       x="-135.328"
       y="-18.1194"
       width="587.13098"
       height="623.72998"
       filterUnits="userSpaceOnUse"
       color-interpolation-filters="sRGB">
      <feFlood
         flood-opacity="0"
         result="BackgroundImageFix"
         id="feFlood15" />
      <feBlend
         mode="normal"
         in="SourceGraphic"
         in2="BackgroundImageFix"
         result="shape"
         id="feBlend15" />
      <feGaussianBlur
         stdDeviation="94.5795"
         result="effect1_foregroundBlur_316_3902"
         id="feGaussianBlur15" />
    </filter>
    <filter
       id="filter3_f_316_3902"
       x="13.2252"
       y="-237.603"
       width="603.82501"
       height="590.745"
       filterUnits="userSpaceOnUse"
       color-interpolation-filters="sRGB">
      <feFlood
         flood-opacity="0"
         result="BackgroundImageFix"
         id="feFlood16" />
      <feBlend
         mode="normal"
         in="SourceGraphic"
         in2="BackgroundImageFix"
         result="shape"
         id="feBlend16" />
      <feGaussianBlur
         stdDeviation="60.8855"
         result="effect1_foregroundBlur_316_3902"
         id="feGaussianBlur16" />
    </filter>
    <filter
       id="filter4_f_316_3902"
       x="-92.6185"
       y="-238.82401"
       width="563.40698"
       height="573.38397"
       filterUnits="userSpaceOnUse"
       color-interpolation-filters="sRGB">
      <feFlood
         flood-opacity="0"
         result="BackgroundImageFix"
         id="feFlood17" />
      <feBlend
         mode="normal"
         in="SourceGraphic"
         in2="BackgroundImageFix"
         result="shape"
         id="feBlend17" />
      <feGaussianBlur
         stdDeviation="60.8855"
         result="effect1_foregroundBlur_316_3902"
         id="feGaussianBlur17" />
    </filter>
    <filter
       id="filter5_f_316_3902"
       x="79.4673"
       y="11.2523"
       width="540.28497"
       height="515.74298"
       filterUnits="userSpaceOnUse"
       color-interpolation-filters="sRGB">
      <feFlood
         flood-opacity="0"
         result="BackgroundImageFix"
         id="feFlood18" />
      <feBlend
         mode="normal"
         in="SourceGraphic"
         in2="BackgroundImageFix"
         result="shape"
         id="feBlend18" />
      <feGaussianBlur
         stdDeviation="60.8855"
         result="effect1_foregroundBlur_316_3902"
         id="feGaussianBlur18" />
    </filter>
    <filter
       id="filter6_f_316_3902"
       x="-187.72"
       y="-28.944"
       width="638.41101"
       height="650.23401"
       filterUnits="userSpaceOnUse"
       color-interpolation-filters="sRGB">
      <feFlood
         flood-opacity="0"
         result="BackgroundImageFix"
         id="feFlood19" />
      <feBlend
         mode="normal"
         in="SourceGraphic"
         in2="BackgroundImageFix"
         result="shape"
         id="feBlend19" />
      <feGaussianBlur
         stdDeviation="94.5795"
         result="effect1_foregroundBlur_316_3902"
         id="feGaussianBlur19" />
    </filter>
    <filter
       id="filter7_f_316_3902"
       x="-19.233601"
       y="-279.409"
       width="692.30298"
       height="628.24298"
       filterUnits="userSpaceOnUse"
       color-interpolation-filters="sRGB">
      <feFlood
         flood-opacity="0"
         result="BackgroundImageFix"
         id="feFlood20" />
      <feBlend
         mode="normal"
         in="SourceGraphic"
         in2="BackgroundImageFix"
         result="shape"
         id="feBlend20" />
      <feGaussianBlur
         stdDeviation="60.8855"
         result="effect1_foregroundBlur_316_3902"
         id="feGaussianBlur20" />
    </filter>
    <filter
       id="filter8_f_316_3902"
       x="-151.07001"
       y="-280.76199"
       width="641.95801"
       height="609.00702"
       filterUnits="userSpaceOnUse"
       color-interpolation-filters="sRGB">
      <feFlood
         flood-opacity="0"
         result="BackgroundImageFix"
         id="feFlood21" />
      <feBlend
         mode="normal"
         in="SourceGraphic"
         in2="BackgroundImageFix"
         result="shape"
         id="feBlend21" />
      <feGaussianBlur
         stdDeviation="60.8855"
         result="effect1_foregroundBlur_316_3902"
         id="feGaussianBlur21" />
    </filter>
  </defs>
</svg>
