<?xml version="1.0" encoding="UTF-8" standalone="no"?>
<svg
   width="35"
   height="35"
   viewBox="0 0 35 35"
   fill="none"
   version="1.1"
   id="svg4"
   sodipodi:docname="intsec.logo.simple.svg"
   inkscape:version="1.3 (0e150ed6c4, 2023-07-21)"
   xmlns:inkscape="http://www.inkscape.org/namespaces/inkscape"
   xmlns:sodipodi="http://sodipodi.sourceforge.net/DTD/sodipodi-0.dtd"
   xmlns="http://www.w3.org/2000/svg"
   xmlns:svg="http://www.w3.org/2000/svg">
  <sodipodi:namedview
     id="namedview4"
     pagecolor="#ffffff"
     bordercolor="#cccccc"
     borderopacity="1"
     inkscape:showpageshadow="0"
     inkscape:pageopacity="1"
     inkscape:pagecheckerboard="0"
     inkscape:deskcolor="#d1d1d1"
     inkscape:zoom="12.810144"
     inkscape:cx="-0.62450509"
     inkscape:cy="10.187239"
     inkscape:window-width="1920"
     inkscape:window-height="1017"
     inkscape:window-x="2152"
     inkscape:window-y="122"
     inkscape:window-maximized="1"
     inkscape:current-layer="svg4" />
  <g
     filter="url(#filter0_d_1_78)"
     id="g1"
     transform="translate(-0.97192068,-1.6964035)">
    <path
       d="m 18.344127,1.7456551 c -0.0562,-0.01345 -0.4229,0.05832 -1.0392,0.19512 -0.929,0.21306 -2.3933,0.54724 -3.4281,0.77824 -0.2856,0.06728 -0.9267,0.20857 -1.4261,0.3252 -0.49932,0.10989 -1.51154,0.3409 -2.24709,0.50686 -0.7377903,0.16596 -1.9052203,0.43061 -2.5935203,0.58536 -0.690561,0.15475 -1.7725109,0.39921 -2.4068309,0.54275 -0.62983,0.14129 -1.16068,0.2624 -1.17193,0.2624 -0.01349,0 -0.02024,3.42692 -0.01574,7.6163699 0.01125,8.3161 -0.00225,7.7308 0.1687,8.7669 0.45213,2.7743 1.84899,5.6024 4.0331309,8.1726 0.61183,0.7177 1.01672,1.1394 1.7837503,1.866 1.41486,1.3412 2.82073,2.4132 4.43803,3.3843 1.1809,0.7065 2.6565,1.4219 3.7025,1.792 l 0.1529,0.0538 0.4004,-0.1458 c 1.9997,-0.7401 3.8239,-1.7493 5.6819,-3.1443 1.2934,-0.9756 2.7128,-2.3033 3.77,-3.5413 2.3011,-2.6756 3.8194,-5.7482 4.258,-8.5875 0.1462,-0.9554 0.1395,-0.4351 0.1507,-8.6167 0.0045,-4.1894499 -0.0022,-7.6163699 -0.0157,-7.6163699 -0.0113,0 -0.5421,-0.12111 -1.1719,-0.2624 -0.6344,-0.14354 -1.7163,-0.388 -2.4046,-0.54275 -0.6906,-0.15475 -1.8557,-0.4194 -2.5935,-0.58536 -0.7378,-0.16596 -1.7523,-0.39697 -2.2494,-0.50686 -0.4994,-0.11663 -1.1472,-0.25792 -1.4396,-0.32744 -0.2947,-0.06729 -0.7221,-0.16372 -0.9515,-0.21531 -0.2294,-0.05158 -1.0662,-0.23997 -1.858,-0.41715 -0.794,-0.17942 -1.4778,-0.33193 -1.5273,-0.33866 z"
       fill="url(#paint0_linear_1_78)"
       id="path1"
       style="display:inline;fill:url(#paint0_linear_1_78)" />
  </g>
  <defs
     id="defs4">
    <filter
       id="filter0_d_1_78"
       x="0"
       y="0"
       width="36.542801"
       height="42.849499"
       filterUnits="userSpaceOnUse"
       color-interpolation-filters="sRGB">
      <feFlood
         flood-opacity="0"
         result="BackgroundImageFix"
         id="feFlood1" />
      <feColorMatrix
         in="SourceAlpha"
         type="matrix"
         values="0 0 0 0 0 0 0 0 0 0 0 0 0 0 0 0 0 0 127 0"
         result="hardAlpha"
         id="feColorMatrix1" />
      <feOffset
         dx="2"
         dy="2"
         id="feOffset1" />
      <feGaussianBlur
         stdDeviation="2"
         id="feGaussianBlur1" />
      <feComposite
         in2="hardAlpha"
         operator="out"
         id="feComposite1" />
      <feColorMatrix
         type="matrix"
         values="0 0 0 0 0 0 0 0 0 0 0 0 0 0 0 0 0 0 0.15 0"
         id="feColorMatrix2" />
      <feBlend
         mode="normal"
         in2="BackgroundImageFix"
         result="effect1_dropShadow_1_78"
         id="feBlend2" />
      <feBlend
         mode="normal"
         in="SourceGraphic"
         in2="effect1_dropShadow_1_78"
         result="shape"
         id="feBlend3" />
    </filter>
    <linearGradient
       id="paint0_linear_1_78"
       x1="6.7550001"
       y1="3.3585701"
       x2="27.812901"
       y2="27.1336"
       gradientUnits="userSpaceOnUse"
       gradientTransform="translate(2.0142258,-0.25594481)">
      <stop
         stop-color="#00597A"
         id="stop3" />
      <stop
         offset="1"
         stop-color="#008DC1"
         id="stop4" />
    </linearGradient>
  </defs>
</svg>
