<?xml version="1.0" encoding="UTF-8" standalone="no"?>
<svg
   width="180.271"
   height="42.849499"
   viewBox="0 0 180.271 42.849499"
   fill="none"
   version="1.1"
   id="svg31"
   sodipodi:docname="Logo.svg"
   inkscape:version="1.3 (0e150ed6c4, 2023-07-21)"
   xmlns:inkscape="http://www.inkscape.org/namespaces/inkscape"
   xmlns:sodipodi="http://sodipodi.sourceforge.net/DTD/sodipodi-0.dtd"
   xmlns="http://www.w3.org/2000/svg"
   xmlns:svg="http://www.w3.org/2000/svg">
  <sodipodi:namedview
     id="namedview31"
     pagecolor="#ffffff"
     bordercolor="#cccccc"
     borderopacity="1"
     inkscape:showpageshadow="0"
     inkscape:pageopacity="1"
     inkscape:pagecheckerboard="true"
     inkscape:deskcolor="#d1d1d1"
     inkscape:zoom="7.5248619"
     inkscape:cx="90.5"
     inkscape:cy="46.578928"
     inkscape:window-width="2560"
     inkscape:window-height="1377"
     inkscape:window-x="2152"
     inkscape:window-y="-8"
     inkscape:window-maximized="1"
     inkscape:current-layer="svg31" />
  <path
     d="m 51.2279,33.1603 v -5.7056 h -2.6272 v 5.7056 H 42.4464 V 17.6674 h 6.1543 v 5.239 h 2.6272 v -5.239 h 6.1543 v 15.4929 z"
     fill="#000000"
     id="path1" />
  <path
     d="m 65.513,26.8985 h 2.6273 l -1.2237,-5.8401 h -0.045 z m -7.4409,6.2618 4.9666,-15.4929 h 7.9898 l 4.9846,15.4929 H 69.6429 L 69.04,30.6753 h -4.4537 l -0.6209,2.485 z"
     fill="#000000"
     id="path2" />
  <path
     d="M 76.7029,33.1603 V 17.6674 h 7.378 l 3.2931,9.3747 h 0.045 v -9.3747 h 4.9936 v 15.4929 h -7.378 l -3.2931,-9.4375 h -0.045 v 9.4375 z"
     fill="#000000"
     id="path3" />
  <path
     d="M 94.6059,33.1603 V 17.6674 h 7.2971 c 1.505,0 2.798,0.1951 3.878,0.5831 1.084,0.3835 1.937,0.9397 2.555,1.6686 0.616,0.7311 1.064,1.5587 1.341,2.485 0.281,0.9217 0.423,1.9825 0.423,3.1847 0,2.3324 -0.709,4.1782 -2.124,5.5351 -1.41,1.3591 -3.311,2.0364 -5.704,2.0364 z M 100.634,21.184 v 8.4597 h 0.603 c 0.886,0 1.539,-0.3275 1.953,-0.9869 0.359,-0.5606 0.539,-1.6416 0.539,-3.2385 0,-1.6013 -0.18,-2.6846 -0.539,-3.2475 -0.414,-0.6571 -1.067,-0.9868 -1.953,-0.9868 z"
     fill="#000000"
     id="path4" />
  <path
     d="m 113.715,33.1603 -3.356,-15.4929 h 5.507 l 1.313,9.7425 h 0.045 l 1.44,-9.7425 h 6.37 l 1.44,9.7425 h 0.045 l 1.313,-9.7425 h 5.507 l -3.356,15.4929 h -6.667 l -1.449,-10.0386 h -0.036 l -1.449,10.0386 z"
     fill="#000000"
     id="path5" />
  <path
     d="M 134.091,33.1603 V 17.6674 h 11.814 v 4.0369 h -5.92 v 1.6507 h 5.47 v 4.0369 h -5.47 v 1.7314 h 6.118 v 4.037 z"
     fill="#000000"
     id="path6" />
  <path
     d="M 147.648,33.1603 V 17.6674 h 9.186 c 1.75,0 3.071,0.305 3.959,0.915 0.893,0.6055 1.341,1.6103 1.341,3.0143 0,1.9736 -1.026,3.2026 -3.077,3.687 v 0.0449 c 1.444,0.1256 2.321,0.785 2.627,1.9736 0.072,0.3006 0.189,1.1304 0.351,2.494 0.166,1.3591 0.387,2.4805 0.657,3.3641 h -6.029 c -0.115,-0.3409 -0.216,-0.7625 -0.306,-1.2649 -0.085,-0.5024 -0.177,-1.1034 -0.279,-1.8032 -0.096,-0.6997 -0.159,-1.1572 -0.189,-1.3726 -0.072,-0.3879 -0.22,-0.6638 -0.44,-0.8253 -0.223,-0.166 -0.576,-0.2512 -1.062,-0.2512 h -0.711 v 5.5172 z m 6.028,-9.0338 h 0.513 c 1.361,0 2.042,-0.5226 2.042,-1.5699 0,-0.5248 -0.168,-0.8837 -0.504,-1.0766 -0.337,-0.1973 -0.834,-0.296 -1.493,-0.296 h -0.558 z"
     fill="#000000"
     id="path7" />
  <path
     d="M 163.958,33.1603 V 17.6674 h 6.029 v 6.6475 h 0.045 l 3.158,-6.6475 h 6.505 l -4.157,7.2934 4.733,8.1995 h -6.667 l -3.572,-6.9525 h -0.045 v 6.9525 z"
     fill="#000000"
     id="path8" />
  <path
     d="M 44.3628,4.43042 V 14.5856 H 42.2394 V 4.43042 Z"
     fill="#000000"
     id="path9" />
  <path
     d="m 49.0503,4.43042 2.7263,7.03328 V 4.43042 H 53.747 V 14.5856 H 50.9578 L 48.1686,7.15761 V 14.5856 H 46.1891 V 4.43042 Z"
     fill="#000000"
     id="path10" />
  <path
     d="m 61.6381,4.43042 v 1.6417 H 59.2717 V 14.5856 H 57.1123 V 6.07212 H 54.764 v -1.6417 z"
     fill="#000000"
     id="path11" />
  <path
     d="M 68.1479,4.43042 V 5.5518 H 64.189 v 3.26544 h 3.671 v 1.11241 h -3.671 v 3.52565 h 4.0489 v 1.1303 H 62.8934 V 4.43042 Z"
     fill="#000000"
     id="path12" />
  <path
     d="m 71.2621,4.43042 v 9.02488 h 3.725 v 1.1303 H 69.9665 V 4.43042 Z"
     fill="#000000"
     id="path13" />
  <path
     d="m 77.5272,4.43042 v 9.02488 h 3.7249 v 1.1303 H 76.2315 V 4.43042 Z"
     fill="#000000"
     id="path14" />
  <path
     d="M 83.9631,4.43042 V 14.5856 H 82.6405 V 4.43042 Z"
     fill="#000000"
     id="path15" />
  <path
     d="m 92.6788,7.00489 v 0.14354 h -1.3586 c 0,-0.62125 -0.135,-1.08774 -0.4049,-1.39948 -0.2654,-0.3095 -0.6793,-0.46649 -1.2416,-0.46649 -0.7806,0 -1.3114,0.21306 -1.5926,0.63694 -0.2834,0.41939 -0.4229,1.24473 -0.4229,2.476 v 2.3235 c 0,1.1259 0.1575,1.9018 0.4769,2.3325 0.3239,0.4306 0.8682,0.6459 1.6375,0.6459 0.27,0 0.5399,-0.0292 0.8098,-0.0897 0.2699,-0.0651 0.5151,-0.1817 0.7378,-0.3499 V 10.2524 H 89.4577 V 9.09514 h 3.1761 v 4.94306 c -0.9065,0.4979 -1.8782,0.7446 -2.9152,0.7446 -1.2011,0 -2.0671,-0.3252 -2.6002,-0.9779 C 86.583,13.1478 86.3176,11.921 86.3176,10.1268 V 8.70938 c 0,-1.32098 0.1215,-2.26966 0.3689,-2.84381 0.2519,-0.57414 0.6231,-0.98905 1.1157,-1.24697 0.4903,-0.2624 1.1382,-0.39472 1.9434,-0.39472 1.0842,0 1.8445,0.231 2.2764,0.69076 0.4364,0.46201 0.6568,1.15727 0.6568,2.09025 z"
     fill="#000000"
     id="path16" />
  <path
     d="m 100.32,4.4303 v 1.12137 h -3.9593 v 3.26545 h 3.6713 v 1.11241 h -3.6713 v 3.52557 h 4.0493 v 1.1304 H 95.065 V 4.4303 Z"
     fill="#000000"
     id="path17" />
  <path
     d="m 104.01,4.4303 4.004,8.6929 V 4.4303 h 1.16 v 10.1552 h -1.763 l -4.049,-8.80955 v 8.80955 h -1.17 V 4.4303 Z"
     fill="#000000"
     id="path18" />
  <path
     d="m 117.245,4.4303 v 1.12137 h -2.681 v 9.03383 h -1.305 V 5.55167 h -2.672 V 4.4303 Z"
     fill="#000000"
     id="path19" />
  <path
     d="m 124.43,14.7739 c -1.014,0 -1.786,-0.2243 -2.312,-0.6728 -0.522,-0.453 -0.783,-1.1259 -0.783,-2.0185 v -0.6369 h 2.168 v 0.2691 c 0,0.5091 0.084,0.8881 0.252,1.1393 0.173,0.2512 0.473,0.3768 0.9,0.3768 0.36,0 0.634,-0.0942 0.828,-0.2871 0.198,-0.1973 0.297,-0.4754 0.297,-0.8343 0,-0.2691 -0.061,-0.4956 -0.18,-0.6818 -0.115,-0.1906 -0.286,-0.3543 -0.513,-0.4934 l -1.692,-1.03165 c -0.798,-0.49564 -1.318,-0.95092 -1.556,-1.36359 -0.234,-0.41267 -0.351,-0.93747 -0.351,-1.5789 0,-0.86121 0.29,-1.52507 0.873,-1.99156 0.587,-0.47098 1.417,-0.70871 2.492,-0.70871 0.958,0 1.692,0.20633 2.195,0.619 0.504,0.40818 0.756,1.10119 0.756,2.08127 v 0.34987 h -2.087 V 7.06781 c 0,-0.87915 -0.342,-1.31873 -1.026,-1.31873 -0.319,0 -0.571,0.10541 -0.756,0.31398 -0.186,0.20409 -0.279,0.47547 -0.279,0.81636 0,0.21082 0.05,0.40818 0.153,0.59209 0.101,0.17942 0.266,0.3409 0.495,0.48444 l 2.061,1.30976 c 0.544,0.34763 0.94,0.70647 1.187,1.07649 0.252,0.3656 0.378,0.868 0.378,1.5072 0,0.9756 -0.288,1.7089 -0.864,2.1979 -0.571,0.4844 -1.448,0.7266 -2.636,0.7266 z"
     fill="#000000"
     id="path20" />
  <path
     d="m 135.002,4.43042 v 1.56096 h -3.437 v 2.50291 h 3.167 v 1.56091 h -3.167 v 2.9425 h 3.545 v 1.5879 h -5.669 V 4.43042 Z"
     fill="#000000"
     id="path21" />
  <path
     d="m 142.806,7.63299 h -2.087 V 7.4446 c 0,-0.57415 -0.09,-0.98681 -0.27,-1.238 -0.175,-0.25567 -0.427,-0.38575 -0.756,-0.38575 -0.373,0 -0.645,0.15026 -0.819,0.44855 -0.168,0.2938 -0.279,0.66834 -0.332,1.12137 -0.054,0.44855 -0.081,1.2066 -0.081,2.26967 0,0.35886 0.009,0.83876 0.027,1.43536 0.018,0.5988 0.116,1.0945 0.296,1.4892 0.185,0.3902 0.495,0.5831 0.927,0.5831 0.36,0 0.632,-0.148 0.819,-0.4485 0.184,-0.3051 0.279,-0.7828 0.279,-1.4354 v -0.1166 h 2.105 v 0.296 c 0,1.0765 -0.261,1.8839 -0.782,2.4222 -0.518,0.5382 -1.314,0.8074 -2.394,0.8074 -0.702,0 -1.275,-0.1054 -1.718,-0.314 -0.439,-0.2086 -0.774,-0.4934 -1.008,-0.8523 -0.23,-0.3588 -0.4,-0.8118 -0.513,-1.3635 -0.115,-0.5563 -0.171,-1.4354 -0.171,-2.63753 0,-0.95092 0.029,-1.69552 0.09,-2.23378 0.059,-0.53826 0.194,-1.03615 0.405,-1.49816 0.209,-0.46649 0.558,-0.8343 1.044,-1.10343 0.49,-0.27362 1.147,-0.41267 1.97,-0.41267 0.972,0 1.71,0.2467 2.214,0.73563 0.503,0.49116 0.755,1.26267 0.755,2.31452 z"
     fill="#000000"
     id="path22" />
  <path
     d="m 145.826,4.43042 v 7.06918 c 0,0.6997 0.156,1.238 0.468,1.6148 0.311,0.3723 0.776,0.5562 1.395,0.5562 0.659,0 1.136,-0.1907 1.431,-0.5742 0.292,-0.3812 0.44,-0.9644 0.44,-1.7493 V 4.43042 h 1.269 v 6.80898 c 0,1.1797 -0.259,2.0634 -0.774,2.6554 -0.517,0.5921 -1.309,0.8882 -2.375,0.8882 -1.015,0 -1.795,-0.2804 -2.339,-0.8433 -0.54,-0.5607 -0.81,-1.3636 -0.81,-2.4042 V 4.43042 Z"
     fill="#000000"
     id="path23" />
  <path
     d="m 156.706,4.43042 c 0.707,0 1.28,0.22876 1.719,0.6818 0.443,0.45528 0.666,1.06755 0.666,1.83905 0,0.62798 -0.162,1.14829 -0.486,1.56096 -0.324,0.40818 -0.783,0.66834 -1.377,0.78048 0.652,0.11438 1.091,0.37454 1.314,0.78049 0.22,0.4082 0.337,1.0361 0.351,1.8839 0.011,0.8433 0.126,1.7202 0.342,2.6285 h -1.359 c -0.072,-0.1794 -0.131,-0.3678 -0.171,-0.5652 -0.036,-0.2018 -0.061,-0.3992 -0.072,-0.5921 l -0.054,-1.1034 -0.054,-0.7894 c -0.036,-0.4239 -0.115,-0.7491 -0.234,-0.9779 -0.121,-0.2265 -0.297,-0.3902 -0.531,-0.4934 -0.229,-0.10091 -0.636,-0.15249 -1.223,-0.15249 h -1.107 v 4.67389 h -1.305 V 4.43042 Z M 154.43,5.5518 v 3.26544 h 1.583 c 0.606,0 1.049,-0.14577 1.332,-0.43957 0.281,-0.29829 0.423,-0.71769 0.423,-1.25595 0,-0.5248 -0.131,-0.91728 -0.387,-1.1752 -0.252,-0.2624 -0.612,-0.39472 -1.08,-0.39472 z"
     fill="#000000"
     id="path24" />
  <path
     d="M 162.464,4.43042 V 14.5856 h -1.322 V 4.43042 Z"
     fill="#000000"
     id="path25" />
  <path
     d="M 170.616,4.43042 V 5.5518 h -2.682 v 9.0338 H 166.63 V 5.5518 h -2.672 V 4.43042 Z"
     fill="#000000"
     id="path26" />
  <path
     d="m 172.38,4.43042 2.007,4.90714 2.042,-4.90714 h 1.332 l -2.798,6.07338 v 4.0818 h -1.278 v -4.1087 l -2.762,-6.04648 z"
     fill="#000000"
     id="path27" />
  <g
     filter="url(#filter0_d_19_10)"
     id="g28">
    <path
       d="M 16.3299,2.0016 C 16.2737,1.98815 15.907,2.05992 15.2907,2.19672 14.3617,2.40978 12.8974,2.74396 11.8626,2.97496 11.577,3.04224 10.9359,3.18353 10.4365,3.30016 9.93718,3.41005 8.92496,3.64106 8.18941,3.80702 7.45162,3.97298 6.28419,4.23763 5.59589,4.39238 4.90533,4.54713 3.82338,4.79159 3.18906,4.93513 2.55923,5.07642 2.02838,5.19753 2.01713,5.19753 c -0.01349,0 -0.02024,3.42692 -0.01574,7.61637 0.01125,8.3161 -0.00225,7.7308 0.1687,8.7669 0.45213,2.7743 1.84899,5.6024 4.03313,8.1726 0.61183,0.7177 1.01672,1.1394 1.78375,1.866 1.41486,1.3412 2.82073,2.4132 4.43803,3.3843 1.1809,0.7065 2.6565,1.4219 3.7025,1.792 l 0.1529,0.0538 0.4004,-0.1458 c 1.9997,-0.7401 3.8239,-1.7493 5.6819,-3.1443 1.2934,-0.9756 2.7128,-2.3033 3.77,-3.5413 2.3011,-2.6756 3.8194,-5.7482 4.258,-8.5875 0.1462,-0.9554 0.1395,-0.4351 0.1507,-8.6167 0.0045,-4.18945 -0.0022,-7.61637 -0.0157,-7.61637 -0.0113,0 -0.5421,-0.12111 -1.1719,-0.2624 C 28.7194,4.79159 27.6375,4.54713 26.9492,4.39238 26.2586,4.23763 25.0935,3.97298 24.3557,3.80702 23.6179,3.64106 22.6034,3.41005 22.1063,3.30016 21.6069,3.18353 20.9591,3.04224 20.6667,2.97272 20.372,2.90543 19.9446,2.809 19.7152,2.75741 19.4858,2.70583 18.649,2.51744 17.8572,2.34026 17.0632,2.16084 16.3794,2.00833 16.3299,2.0016 Z"
       fill="url(#paint0_linear_19_10)"
       id="path28"
       style="fill:url(#paint0_linear_19_10)" />
  </g>
  <defs
     id="defs31">
    <filter
       id="filter0_d_19_10"
       x="0"
       y="0"
       width="36.542801"
       height="42.849499"
       filterUnits="userSpaceOnUse"
       color-interpolation-filters="sRGB">
      <feFlood
         flood-opacity="0"
         result="BackgroundImageFix"
         id="feFlood28" />
      <feColorMatrix
         in="SourceAlpha"
         type="matrix"
         values="0 0 0 0 0 0 0 0 0 0 0 0 0 0 0 0 0 0 127 0"
         result="hardAlpha"
         id="feColorMatrix28" />
      <feOffset
         dx="2"
         dy="2"
         id="feOffset28" />
      <feGaussianBlur
         stdDeviation="2"
         id="feGaussianBlur28" />
      <feComposite
         in2="hardAlpha"
         operator="out"
         id="feComposite28" />
      <feColorMatrix
         type="matrix"
         values="0 0 0 0 0 0 0 0 0 0 0 0 0 0 0 0 0 0 0.15 0"
         id="feColorMatrix29" />
      <feBlend
         mode="normal"
         in2="BackgroundImageFix"
         result="effect1_dropShadow_19_10"
         id="feBlend29" />
      <feBlend
         mode="normal"
         in="SourceGraphic"
         in2="effect1_dropShadow_19_10"
         result="shape"
         id="feBlend30" />
    </filter>
    <linearGradient
       id="paint0_linear_19_10"
       x1="6.7550001"
       y1="3.3585701"
       x2="27.812901"
       y2="27.1336"
       gradientUnits="userSpaceOnUse">
      <stop
         stop-color="#00597A"
         id="stop30" />
      <stop
         offset="1"
         stop-color="#008DC1"
         id="stop31" />
    </linearGradient>
  </defs>
</svg>
