<?xml version="1.0" encoding="UTF-8" standalone="no"?>
<!-- Uploaded to: SVG Repo, www.svgrepo.com, Generator: SVG Repo Mixer Tools -->

<svg
   version="1.1"
   id="Capa_1"
   viewBox="0 0 60 60"
   xml:space="preserve"
   sodipodi:docname="500-error.svg"
   inkscape:version="1.3 (0e150ed6c4, 2023-07-21)"
   xmlns:inkscape="http://www.inkscape.org/namespaces/inkscape"
   xmlns:sodipodi="http://sodipodi.sourceforge.net/DTD/sodipodi-0.dtd"
   xmlns="http://www.w3.org/2000/svg"
   xmlns:svg="http://www.w3.org/2000/svg"><defs
   id="defs4" /><sodipodi:namedview
   id="namedview4"
   pagecolor="#ffffff"
   bordercolor="#cccccc"
   borderopacity="1"
   inkscape:showpageshadow="0"
   inkscape:pageopacity="1"
   inkscape:pagecheckerboard="0"
   inkscape:deskcolor="#d1d1d1"
   inkscape:zoom="4.7458333"
   inkscape:cx="-6.2159789"
   inkscape:cy="7.9016681"
   inkscape:window-width="2560"
   inkscape:window-height="1377"
   inkscape:window-x="2152"
   inkscape:window-y="-8"
   inkscape:window-maximized="1"
   inkscape:current-layer="Capa_1" />&#10;<g
   id="g4">&#10;	<path
   style="fill:#231F20;"
   d="M57,0H3C1.346,0,0,1.346,0,3v56c0,0.552,0.448,1,1,1h58c0.552,0,1-0.448,1-1V3   C60,1.346,58.654,0,57,0z M3,2h54c0.551,0,1,0.449,1,1v5H2V3C2,2.449,2.449,2,3,2z M19,53v5h-8v-5H19z M21,53h8v5h-8V53z M31,53h8   v5h-8V53z M41,53h8v5h-8V53z M2,51V17h56v34H2z M2,15v-5h56v5H2z M2,53h7v5H2V53z M51,58v-5h7v5H51z"
   id="path1" />&#10;	<rect
   x="5"
   y="4"
   style="fill:#231F20;"
   width="4"
   height="2"
   id="rect1" />&#10;	<rect
   x="12"
   y="4"
   style="fill:#231F20;"
   width="4"
   height="2"
   id="rect2" />&#10;	&#10;	&#10;	&#10;</g>&#10;<path
   style="font-size:28px;line-height:1.25;font-family:'Miriam Mono CLM';-inkscape-font-specification:'Miriam Mono CLM';word-spacing:0px"
   d="m 10.357989,26.432659 v 5.544 q 2.044,-0.84 3.696,-0.84 2.156,0 3.556,1.54 1.4,1.54 1.4,3.892 0,2.66 -1.624,4.368 -1.596,1.68 -4.088,1.68 -2.212,0 -4.2839999,-1.372 -1.288,-0.84 -1.288,-1.344 0,-0.224 0.168,-0.392 0.168,-0.168 0.392,-0.168 0.224,0 0.476,0.252 2.0439999,1.876 4.4799999,1.876 2.044,0 3.332,-1.372 1.288,-1.372 1.288,-3.584 0,-1.876 -1.12,-3.052 -1.092,-1.176 -2.856,-1.176 -1.764,0 -3.528,0.924 -0.4479999,0.224 -0.6159999,0.224 -0.532,0 -0.532,-0.616 v -7.532 h 7.8959999 q 0.784,0 0.784,0.56 0,0.588 -0.784,0.588 z m 25.116011,5.936 v 2.8 q 0,3.304 -1.456,5.376 -1.456,2.072 -3.78,2.072 -2.324,0 -3.78,-2.072 -1.456,-2.072 -1.456,-5.376 v -2.8 q 0,-3.332 1.456,-5.404 1.456,-2.072 3.78,-2.072 2.324,0 3.78,2.072 1.456,2.072 1.456,5.404 z m -9.324,0.14 v 2.492 q 0,2.912 1.344,4.984 0.952,1.484 2.744,1.484 1.792,0 2.744,-1.484 1.344,-2.072 1.344,-4.984 v -2.492 q 0,-2.912 -1.344,-4.984 -0.952,-1.484 -2.744,-1.484 -1.792,0 -2.744,1.484 -1.344,2.072 -1.344,4.984 z m 26.124011,-0.14 v 2.8 q 0,3.304 -1.456,5.376 -1.456,2.072 -3.78,2.072 -2.324,0 -3.78,-2.072 -1.456,-2.072 -1.456,-5.376 v -2.8 q 0,-3.332 1.456,-5.404 1.456,-2.072 3.78,-2.072 2.324,0 3.78,2.072 1.456,2.072 1.456,5.404 z m -9.324,0.14 v 2.492 q 0,2.912 1.344,4.984 0.952,1.484 2.744,1.484 1.792,0 2.744,-1.484 1.344,-2.072 1.344,-4.984 v -2.492 q 0,-2.912 -1.344,-4.984 -0.952,-1.484 -2.744,-1.484 -1.792,0 -2.744,1.484 -1.344,2.072 -1.344,4.984 z"
   id="text4"
   aria-label="500" /></svg>
